<svg id="svg" version="1.1" xmlns="http://www.w3.org/2000/svg" xmlns:xlink="http://www.w3.org/1999/xlink" width="400" height="400" viewBox="0, 0, 400,400"><g id="svgg"><path id="path0" d="M133.200 26.197 C 133.200 27.000,133.001 27.200,132.200 27.200 C 131.351 27.200,131.200 27.385,131.200 28.424 C 131.200 29.097,131.065 29.575,130.900 29.487 C 130.370 29.204,129.404 30.570,129.261 31.804 C 129.095 33.237,129.103 33.227,128.073 33.304 C 127.623 33.338,127.264 33.464,127.275 33.583 C 127.479 35.827,127.128 37.155,126.300 37.272 C 125.532 37.381,125.382 37.679,125.278 39.300 C 125.169 41.000,125.056 41.200,124.205 41.200 C 123.464 41.200,123.225 41.444,123.127 42.300 C 123.057 42.905,122.820 43.372,122.600 43.338 C 122.204 43.277,121.175 44.192,121.192 44.592 C 121.286 46.923,121.181 47.200,120.200 47.200 C 119.267 47.200,119.200 47.333,119.200 49.200 C 119.200 51.067,119.133 51.200,118.200 51.200 C 117.405 51.200,117.200 51.401,117.200 52.182 C 117.200 52.722,116.750 53.614,116.200 54.164 C 115.650 54.714,115.200 55.622,115.200 56.182 C 115.200 56.742,115.020 57.223,114.800 57.250 C 114.580 57.278,114.175 57.323,113.900 57.350 C 113.373 57.403,113.330 57.565,113.250 59.800 C 113.207 61.013,113.067 61.200,112.200 61.200 C 111.267 61.200,111.200 61.333,111.200 63.200 C 111.200 65.067,111.133 65.200,110.200 65.200 C 109.395 65.200,109.200 65.399,109.200 66.218 C 109.200 66.778,108.750 67.686,108.200 68.236 C 106.948 69.488,106.842 71.200,108.016 71.200 C 108.465 71.200,109.538 71.560,110.400 72.000 C 111.913 72.772,112.758 72.800,134.488 72.800 C 156.574 72.800,157.017 72.815,157.507 73.600 C 157.782 74.040,158.275 74.400,158.603 74.400 C 158.993 74.400,159.200 74.797,159.200 75.545 C 159.200 76.221,159.594 77.085,160.160 77.651 C 160.688 78.179,161.183 79.058,161.260 79.605 C 161.355 80.278,161.692 80.641,162.300 80.728 C 163.005 80.828,163.200 81.116,163.200 82.054 C 163.200 83.513,163.839 84.800,164.563 84.800 C 164.877 84.800,165.203 85.456,165.352 86.387 C 165.511 87.383,165.903 88.134,166.403 88.401 C 166.841 88.636,167.200 89.156,167.200 89.556 C 167.200 89.956,167.650 90.769,168.200 91.362 C 168.750 91.956,169.200 92.687,169.200 92.988 C 169.200 94.071,169.700 94.800,170.443 94.800 C 171.021 94.800,171.200 95.090,171.200 96.026 C 171.200 97.547,171.839 98.800,172.614 98.800 C 172.940 98.800,173.200 99.167,173.200 99.626 C 173.200 100.641,173.930 102.090,174.658 102.520 C 174.956 102.696,175.200 103.159,175.200 103.550 C 175.200 103.941,175.650 104.683,176.200 105.200 C 176.750 105.717,177.200 106.453,177.200 106.837 C 177.200 108.066,177.665 108.800,178.443 108.800 C 178.960 108.800,179.202 109.086,179.205 109.700 C 179.215 111.274,179.665 112.367,180.399 112.600 C 180.791 112.724,182.026 113.740,183.144 114.858 C 185.078 116.792,185.249 116.876,186.688 116.588 C 187.520 116.422,198.789 116.217,211.731 116.134 L 235.261 115.981 236.631 117.351 C 237.409 118.129,238.001 119.125,238.002 119.660 C 238.004 120.177,238.254 121.078,238.559 121.661 C 238.863 122.245,239.319 123.348,239.571 124.113 C 239.824 124.878,240.383 125.823,240.815 126.214 C 241.247 126.604,241.600 127.247,241.600 127.642 C 241.600 128.037,241.845 128.504,242.145 128.680 C 242.444 128.856,243.064 129.855,243.522 130.900 C 243.980 131.945,244.531 132.800,244.746 132.800 C 244.961 132.800,245.257 133.348,245.404 134.018 C 245.551 134.688,246.105 135.704,246.636 136.276 C 247.166 136.849,247.600 137.580,247.600 137.901 C 247.600 138.222,248.050 139.019,248.600 139.673 C 249.150 140.327,249.600 141.111,249.600 141.415 C 249.600 141.720,249.936 142.291,250.347 142.684 C 250.758 143.078,251.312 144.075,251.578 144.900 C 251.844 145.725,252.220 146.400,252.412 146.400 C 252.605 146.400,253.135 147.165,253.591 148.100 C 254.046 149.035,254.958 150.700,255.617 151.800 C 256.276 152.900,257.087 154.393,257.420 155.117 C 257.753 155.842,258.290 156.536,258.613 156.660 C 258.936 156.784,259.200 157.201,259.200 157.587 C 259.200 157.973,259.648 158.948,260.195 159.755 L 261.190 161.221 260.395 162.705 C 259.958 163.521,259.600 164.394,259.600 164.645 C 259.600 164.896,259.311 165.342,258.958 165.635 C 258.605 165.927,258.151 166.535,257.948 166.984 C 257.439 168.113,253.979 174.176,251.775 177.800 C 251.240 178.680,250.437 180.158,249.990 181.083 C 249.543 182.009,249.034 182.856,248.858 182.964 C 248.682 183.073,247.766 184.655,246.821 186.481 C 245.876 188.306,244.855 190.084,244.551 190.431 C 244.248 190.779,244.000 191.250,244.000 191.478 C 244.000 191.706,243.601 192.399,243.113 193.019 C 240.649 196.153,238.501 201.132,238.299 204.178 L 238.126 206.806 265.363 206.703 L 292.600 206.600 293.040 205.238 C 293.282 204.490,293.784 203.655,294.154 203.384 C 294.525 203.113,294.906 202.486,295.002 201.991 C 295.200 200.962,295.484 200.600,296.095 200.600 C 296.507 200.600,296.604 200.333,297.077 197.900 C 297.214 197.195,297.545 196.800,297.999 196.800 C 298.743 196.800,299.185 195.739,299.195 193.928 C 299.199 193.132,299.426 192.823,300.076 192.728 C 300.685 192.639,301.056 192.198,301.293 191.281 C 301.480 190.556,301.894 189.862,302.214 189.739 C 302.534 189.617,302.696 189.355,302.574 189.158 C 302.452 188.961,302.543 188.800,302.776 188.800 C 303.009 188.800,303.200 188.393,303.200 187.896 C 303.200 187.399,303.560 186.768,304.000 186.493 C 304.579 186.131,304.800 185.560,304.800 184.424 C 304.800 183.102,304.941 182.836,305.700 182.728 C 306.355 182.635,306.636 182.288,306.731 181.452 C 306.803 180.821,307.298 179.900,307.831 179.406 C 308.402 178.877,308.800 178.058,308.800 177.411 C 308.800 176.605,308.957 176.375,309.395 176.543 C 309.739 176.675,309.950 176.566,309.895 176.286 C 309.843 176.019,309.980 175.830,310.200 175.866 C 310.420 175.902,310.647 175.285,310.705 174.494 C 310.829 172.815,310.855 172.776,311.927 172.696 C 312.377 172.662,312.736 172.536,312.725 172.417 C 312.521 170.173,312.872 168.845,313.700 168.728 C 314.420 168.626,314.640 168.280,314.800 167.000 C 314.947 165.823,315.243 165.294,315.920 165.000 C 317.336 164.384,317.197 157.027,315.747 155.887 C 315.216 155.469,314.800 154.716,314.800 154.171 C 314.800 153.402,314.592 153.200,313.800 153.200 C 312.867 153.200,312.800 153.067,312.800 151.200 C 312.800 149.333,312.733 149.200,311.800 149.200 C 310.858 149.200,310.440 147.882,310.753 145.900 C 310.779 145.735,310.665 145.629,310.500 145.664 C 309.621 145.850,308.800 145.014,308.800 143.934 C 308.800 143.284,308.640 142.851,308.445 142.972 C 307.924 143.294,307.136 142.182,306.834 140.698 C 306.645 139.766,306.320 139.364,305.685 139.272 C 304.944 139.165,304.800 138.890,304.800 137.576 C 304.800 136.440,304.579 135.869,304.000 135.507 C 303.560 135.232,303.200 134.695,303.200 134.313 C 303.200 133.407,301.808 131.125,301.465 131.468 C 301.319 131.614,301.200 131.249,301.200 130.657 C 301.200 129.876,300.925 129.476,300.200 129.200 C 299.565 128.959,299.183 128.488,299.154 127.910 C 299.056 125.984,298.974 125.789,298.100 125.405 C 297.474 125.130,297.200 124.668,297.200 123.886 C 297.200 123.201,296.810 122.400,296.200 121.835 C 295.650 121.325,295.200 120.625,295.200 120.278 C 295.200 119.931,295.020 119.536,294.800 119.400 C 294.580 119.264,294.400 118.703,294.400 118.153 C 294.400 117.587,294.226 117.260,293.999 117.400 C 293.779 117.537,293.422 117.183,293.205 116.614 C 292.989 116.045,292.494 115.460,292.106 115.314 C 291.129 114.947,289.200 112.839,289.200 112.139 C 289.200 111.821,288.761 111.155,288.224 110.657 C 287.687 110.160,287.178 109.223,287.092 108.576 C 286.982 107.748,286.686 107.363,286.090 107.275 C 285.407 107.174,285.220 106.827,285.122 105.475 C 285.029 104.201,284.790 103.708,284.121 103.414 C 283.525 103.153,283.159 102.539,282.985 101.512 C 282.844 100.678,282.388 99.757,281.972 99.466 C 281.556 99.174,281.143 98.500,281.053 97.968 C 280.964 97.436,280.707 97.039,280.484 97.087 C 279.825 97.228,279.275 96.297,279.133 94.798 C 279.029 93.702,278.805 93.372,278.100 93.272 C 277.395 93.172,277.200 92.884,277.200 91.946 C 277.200 90.483,276.561 89.200,275.831 89.200 C 275.534 89.200,275.207 88.705,275.105 88.100 C 274.777 86.157,274.613 85.806,273.900 85.513 C 273.515 85.355,273.200 84.896,273.200 84.493 C 273.200 84.090,272.975 83.535,272.700 83.260 C 272.425 82.985,272.192 82.544,272.182 82.280 C 272.172 82.016,271.947 81.845,271.682 81.900 C 271.417 81.955,271.178 81.730,271.150 81.400 C 271.123 81.070,271.078 80.575,271.050 80.300 C 271.022 80.025,270.595 79.622,270.100 79.405 C 269.513 79.148,269.198 78.661,269.195 78.005 C 269.185 76.212,268.737 75.200,267.953 75.200 C 267.421 75.200,267.200 74.913,267.200 74.224 C 267.200 73.687,267.017 73.134,266.793 72.996 C 266.570 72.858,266.508 72.549,266.655 72.311 C 266.816 72.050,266.737 71.992,266.459 72.164 C 266.199 72.324,265.889 72.175,265.754 71.825 C 265.540 71.267,262.692 71.200,239.157 71.200 L 212.800 71.200 212.800 69.200 C 212.800 67.333,212.733 67.200,211.800 67.200 C 210.867 67.200,210.800 67.067,210.800 65.200 C 210.800 63.333,210.733 63.200,209.800 63.200 C 208.867 63.200,208.800 63.067,208.800 61.200 C 208.800 59.333,208.733 59.200,207.800 59.200 C 206.953 59.200,206.800 59.014,206.800 57.987 C 206.800 57.279,206.551 56.679,206.200 56.545 C 205.870 56.418,205.600 56.053,205.600 55.734 C 205.600 55.414,205.420 55.264,205.200 55.400 C 204.967 55.544,204.800 55.137,204.800 54.424 C 204.800 53.385,204.649 53.200,203.800 53.200 C 202.867 53.200,202.800 53.067,202.800 51.200 C 202.800 49.333,202.733 49.200,201.800 49.200 C 200.859 49.200,200.444 47.899,200.750 45.907 C 200.775 45.746,200.346 45.501,199.798 45.364 C 199.108 45.191,198.800 44.838,198.800 44.223 C 198.800 43.734,198.665 43.198,198.500 43.033 C 198.335 42.868,198.192 42.523,198.182 42.267 C 198.172 42.010,197.952 41.843,197.692 41.896 C 197.433 41.950,197.071 41.410,196.887 40.696 C 196.659 39.814,196.280 39.360,195.697 39.275 C 194.984 39.171,194.822 38.838,194.721 37.275 C 194.618 35.679,194.466 35.381,193.700 35.272 C 193.015 35.175,192.788 34.864,192.750 33.972 C 192.722 33.327,192.655 32.620,192.600 32.400 C 192.545 32.180,192.478 31.820,192.450 31.600 C 192.423 31.380,192.265 31.221,192.100 31.247 C 191.171 31.394,190.800 31.090,190.800 30.182 C 190.800 29.622,190.363 28.727,189.829 28.193 C 189.295 27.659,188.800 26.812,188.729 26.311 L 188.600 25.400 160.900 25.297 L 133.200 25.195 133.200 26.197 " stroke="none" fill="#32a45f" fill-rule="evenodd"></path><path id="path1" d="M107.400 71.600 C 107.536 71.820,107.975 72.000,108.375 72.000 C 108.807 72.000,109.305 72.488,109.600 73.200 C 109.873 73.860,110.247 74.400,110.430 74.400 C 110.613 74.400,111.138 75.165,111.597 76.100 C 112.057 77.035,112.957 78.700,113.598 79.800 C 114.240 80.900,115.063 82.430,115.427 83.200 C 115.792 83.970,116.252 84.702,116.451 84.827 C 116.827 85.064,118.184 87.445,119.516 90.206 C 119.942 91.089,120.585 92.056,120.945 92.355 C 121.305 92.653,121.600 93.225,121.600 93.625 C 121.600 94.025,121.783 94.466,122.008 94.605 C 122.232 94.743,122.865 95.744,123.414 96.828 C 123.964 97.913,124.590 98.800,124.807 98.800 C 125.023 98.800,125.200 99.133,125.200 99.540 C 125.200 99.947,125.737 101.072,126.393 102.040 C 127.049 103.008,127.589 103.952,127.593 104.138 C 127.597 104.324,128.005 105.044,128.499 105.738 C 129.582 107.258,130.477 108.825,131.561 111.100 C 132.007 112.035,132.558 112.800,132.786 112.800 C 133.014 112.800,133.200 113.044,133.200 113.342 C 133.200 113.639,133.635 114.353,134.167 114.927 L 135.134 115.970 158.947 116.085 C 184.181 116.207,184.289 116.216,182.856 118.038 C 182.434 118.575,181.794 119.640,181.434 120.407 C 181.074 121.173,179.797 123.420,178.595 125.400 C 177.393 127.380,176.128 129.603,175.783 130.341 C 175.437 131.078,174.805 132.057,174.378 132.516 C 173.950 132.975,173.600 133.655,173.600 134.026 C 173.600 134.398,173.328 134.928,172.995 135.204 C 172.663 135.480,172.024 136.447,171.575 137.353 C 170.321 139.887,169.332 141.589,168.684 142.328 C 168.360 142.697,167.963 143.450,167.801 144.000 C 167.640 144.550,167.186 145.360,166.792 145.800 C 166.399 146.240,165.780 147.230,165.417 148.000 C 164.424 150.106,163.344 151.976,162.684 152.728 C 162.360 153.097,161.963 153.850,161.801 154.400 C 161.640 154.950,161.154 155.787,160.721 156.261 C 159.495 157.602,159.313 160.113,160.365 161.165 L 161.222 162.022 187.216 161.911 C 211.855 161.806,213.222 161.837,213.436 162.513 C 213.560 162.905,214.098 163.696,214.631 164.271 C 215.164 164.846,215.600 165.580,215.600 165.901 C 215.600 166.222,216.050 167.019,216.600 167.673 C 217.150 168.327,217.600 169.111,217.600 169.415 C 217.600 169.720,217.936 170.291,218.347 170.684 C 218.758 171.078,219.306 172.059,219.566 172.865 C 219.826 173.670,220.283 174.423,220.582 174.538 C 220.880 174.652,221.243 175.286,221.388 175.945 C 221.533 176.605,221.934 177.380,222.280 177.667 C 222.626 177.954,223.256 178.911,223.679 179.794 C 225.003 182.556,225.973 184.185,226.544 184.606 C 226.847 184.829,227.220 185.581,227.373 186.278 C 227.526 186.975,227.912 187.761,228.230 188.025 C 228.549 188.289,229.138 189.247,229.540 190.153 C 229.941 191.059,230.569 192.047,230.935 192.349 C 231.301 192.651,231.600 193.208,231.600 193.587 C 231.600 193.966,231.950 194.593,232.377 194.979 C 232.805 195.366,233.269 196.204,233.409 196.841 C 233.549 197.478,233.985 198.224,234.378 198.500 C 234.771 198.775,235.217 199.566,235.369 200.259 C 235.521 200.951,235.995 201.834,236.423 202.221 C 236.992 202.736,237.200 203.451,237.200 204.895 C 237.200 207.847,238.131 207.152,238.311 204.066 C 238.480 201.176,240.682 196.110,243.113 193.019 C 243.601 192.399,244.000 191.706,244.000 191.478 C 244.000 191.250,244.248 190.779,244.551 190.431 C 244.855 190.084,245.876 188.306,246.821 186.481 C 247.766 184.655,248.682 183.073,248.858 182.964 C 249.034 182.856,249.543 182.009,249.990 181.083 C 250.437 180.158,251.240 178.680,251.775 177.800 C 253.979 174.176,257.439 168.113,257.948 166.984 C 258.151 166.535,258.605 165.927,258.958 165.635 C 259.311 165.342,259.600 164.896,259.600 164.645 C 259.600 164.394,259.958 163.521,260.395 162.705 L 261.190 161.221 260.195 159.755 C 259.648 158.948,259.200 157.973,259.200 157.587 C 259.200 157.201,258.936 156.784,258.613 156.660 C 258.290 156.536,257.753 155.842,257.420 155.117 C 257.087 154.393,256.276 152.900,255.617 151.800 C 254.958 150.700,254.046 149.035,253.591 148.100 C 253.135 147.165,252.605 146.400,252.412 146.400 C 252.220 146.400,251.844 145.725,251.578 144.900 C 251.312 144.075,250.758 143.078,250.347 142.684 C 249.936 142.291,249.600 141.720,249.600 141.415 C 249.600 141.111,249.150 140.327,248.600 139.673 C 248.050 139.019,247.600 138.222,247.600 137.901 C 247.600 137.580,247.166 136.849,246.636 136.276 C 246.105 135.704,245.551 134.688,245.404 134.018 C 245.257 133.348,244.961 132.800,244.746 132.800 C 244.531 132.800,243.980 131.945,243.522 130.900 C 243.064 129.855,242.444 128.856,242.145 128.680 C 241.845 128.504,241.600 128.037,241.600 127.642 C 241.600 127.247,241.247 126.604,240.815 126.214 C 240.383 125.823,239.824 124.878,239.571 124.113 C 239.319 123.348,238.863 122.245,238.559 121.661 C 238.254 121.078,238.004 120.177,238.002 119.660 C 238.001 119.125,237.409 118.129,236.631 117.351 L 235.261 115.981 211.731 116.134 C 198.789 116.217,187.520 116.422,186.688 116.588 C 185.249 116.876,185.078 116.792,183.144 114.858 C 182.026 113.740,180.791 112.724,180.399 112.600 C 179.665 112.367,179.215 111.274,179.205 109.700 C 179.202 109.086,178.960 108.800,178.443 108.800 C 177.665 108.800,177.200 108.066,177.200 106.837 C 177.200 106.453,176.750 105.717,176.200 105.200 C 175.650 104.683,175.200 103.941,175.200 103.550 C 175.200 103.159,174.956 102.696,174.658 102.520 C 173.930 102.090,173.200 100.641,173.200 99.626 C 173.200 99.167,172.940 98.800,172.614 98.800 C 171.839 98.800,171.200 97.547,171.200 96.026 C 171.200 95.090,171.021 94.800,170.443 94.800 C 169.700 94.800,169.200 94.071,169.200 92.988 C 169.200 92.687,168.750 91.956,168.200 91.362 C 167.650 90.769,167.200 89.956,167.200 89.556 C 167.200 89.156,166.841 88.636,166.403 88.401 C 165.903 88.134,165.511 87.383,165.352 86.387 C 165.203 85.456,164.877 84.800,164.563 84.800 C 163.839 84.800,163.200 83.513,163.200 82.054 C 163.200 81.116,163.005 80.828,162.300 80.728 C 161.692 80.641,161.355 80.278,161.260 79.605 C 161.183 79.058,160.688 78.179,160.160 77.651 C 159.594 77.085,159.200 76.221,159.200 75.545 C 159.200 74.797,158.993 74.400,158.603 74.400 C 158.275 74.400,157.782 74.040,157.507 73.600 C 157.017 72.815,156.574 72.800,134.488 72.800 C 112.758 72.800,111.913 72.772,110.400 72.000 C 108.748 71.157,106.981 70.922,107.400 71.600 M312.800 152.600 C 312.800 152.930,313.092 153.200,313.449 153.200 C 313.980 153.200,314.008 153.091,313.600 152.600 C 313.326 152.270,313.034 152.000,312.951 152.000 C 312.868 152.000,312.800 152.270,312.800 152.600 M164.000 172.951 C 164.000 173.034,164.270 173.326,164.600 173.600 C 165.091 174.008,165.200 173.980,165.200 173.449 C 165.200 173.092,164.930 172.800,164.600 172.800 C 164.270 172.800,164.000 172.868,164.000 172.951 " stroke="none" fill="#1594d8" fill-rule="evenodd"></path><path id="path2" d="M105.200 72.200 C 105.200 73.000,105.000 73.200,104.200 73.200 C 103.267 73.200,103.200 73.333,103.200 75.200 C 103.200 77.067,103.133 77.200,102.200 77.200 C 101.267 77.200,101.200 77.333,101.200 79.200 C 101.200 81.067,101.133 81.200,100.200 81.200 C 99.428 81.200,99.200 81.406,99.200 82.105 C 99.200 82.660,98.852 83.163,98.300 83.405 C 97.608 83.709,97.372 84.188,97.278 85.475 C 97.178 86.849,96.999 87.173,96.278 87.275 C 95.536 87.381,95.381 87.694,95.278 89.300 C 95.168 91.015,95.061 91.200,94.178 91.200 C 93.331 91.200,93.200 91.383,93.200 92.571 C 93.200 93.557,92.919 94.163,92.200 94.729 C 91.650 95.161,91.200 95.882,91.200 96.330 C 91.200 96.870,90.897 97.187,90.300 97.272 C 89.532 97.381,89.382 97.679,89.278 99.300 C 89.168 101.015,89.061 101.200,88.178 101.200 C 87.271 101.200,87.200 101.345,87.200 103.200 C 87.200 105.067,87.133 105.200,86.200 105.200 C 85.446 105.200,85.200 105.410,85.200 106.054 C 85.200 106.524,84.750 107.325,84.200 107.835 C 83.555 108.433,83.200 109.194,83.200 109.981 C 83.200 111.114,82.801 111.423,81.544 111.262 C 81.403 111.244,81.259 113.383,81.225 116.015 L 81.164 120.800 82.182 120.800 C 83.137 120.800,83.200 120.924,83.200 122.800 C 83.200 124.667,83.267 124.800,84.200 124.800 C 85.072 124.800,85.200 124.976,85.200 126.167 C 85.200 128.052,85.553 128.800,86.443 128.800 C 86.946 128.800,87.200 129.083,87.200 129.642 C 87.200 130.106,87.650 130.839,88.200 131.271 C 88.919 131.837,89.200 132.443,89.200 133.429 C 89.200 134.625,89.328 134.800,90.200 134.800 C 91.133 134.800,91.200 134.933,91.200 136.800 C 91.200 138.655,91.271 138.800,92.178 138.800 C 93.061 138.800,93.168 138.985,93.278 140.700 C 93.382 142.321,93.532 142.619,94.300 142.728 C 94.951 142.820,95.200 143.124,95.200 143.828 C 95.200 144.598,95.408 144.800,96.200 144.800 C 97.133 144.800,97.200 144.933,97.200 146.800 C 97.200 148.667,97.267 148.800,98.200 148.800 C 99.133 148.800,99.200 148.933,99.200 150.800 C 99.200 152.667,99.267 152.800,100.200 152.800 C 101.013 152.800,101.209 153.006,101.246 153.900 C 101.335 156.019,101.407 156.203,102.300 156.595 C 102.852 156.837,103.200 157.340,103.200 157.895 C 103.200 158.594,103.428 158.800,104.200 158.800 C 105.133 158.800,105.200 158.933,105.200 160.800 L 105.200 162.800 132.200 162.800 L 159.200 162.800 159.200 164.800 C 159.200 166.655,159.271 166.800,160.178 166.800 C 161.061 166.800,161.168 166.985,161.278 168.700 C 161.382 170.321,161.532 170.619,162.300 170.728 C 162.951 170.820,163.200 171.124,163.200 171.828 C 163.200 172.598,163.408 172.800,164.200 172.800 C 165.133 172.800,165.200 172.933,165.200 174.800 C 165.200 176.667,165.267 176.800,166.200 176.800 C 167.133 176.800,167.200 176.933,167.200 178.800 C 167.200 180.655,167.271 180.800,168.178 180.800 C 169.061 180.800,169.168 180.985,169.278 182.700 C 169.386 184.379,169.505 184.596,170.300 184.568 C 171.029 184.543,171.200 184.752,171.200 185.668 C 171.200 186.609,171.369 186.800,172.200 186.800 C 173.134 186.800,173.200 186.932,173.200 188.818 C 173.200 190.200,173.358 190.815,173.700 190.770 C 175.017 190.599,175.200 190.846,175.200 192.800 C 175.200 194.654,175.271 194.800,176.177 194.800 C 177.040 194.800,177.168 194.998,177.277 196.500 C 177.372 197.813,177.605 198.290,178.300 198.595 C 178.852 198.837,179.200 199.340,179.200 199.895 C 179.200 200.594,179.428 200.800,180.200 200.800 C 181.133 200.800,181.200 200.933,181.200 202.800 C 181.200 204.667,181.267 204.800,182.200 204.800 C 183.000 204.800,183.200 205.000,183.200 205.800 L 183.200 206.800 210.200 206.800 L 237.200 206.800 237.200 204.862 C 237.200 203.451,236.989 202.733,236.423 202.221 C 235.995 201.834,235.521 200.951,235.369 200.259 C 235.217 199.566,234.771 198.775,234.378 198.500 C 233.985 198.224,233.549 197.478,233.409 196.841 C 233.269 196.204,232.805 195.366,232.377 194.979 C 231.950 194.593,231.600 193.966,231.600 193.587 C 231.600 193.208,231.301 192.651,230.935 192.349 C 230.569 192.047,229.941 191.059,229.540 190.153 C 229.138 189.247,228.549 188.289,228.230 188.025 C 227.912 187.761,227.526 186.975,227.373 186.278 C 227.220 185.581,226.847 184.829,226.544 184.606 C 225.973 184.185,225.003 182.556,223.679 179.794 C 223.256 178.911,222.626 177.954,222.280 177.667 C 221.934 177.380,221.533 176.605,221.388 175.945 C 221.243 175.286,220.880 174.652,220.582 174.538 C 220.283 174.423,219.826 173.670,219.566 172.865 C 219.306 172.059,218.758 171.078,218.347 170.684 C 217.936 170.291,217.600 169.720,217.600 169.415 C 217.600 169.111,217.150 168.327,216.600 167.673 C 216.050 167.019,215.600 166.222,215.600 165.901 C 215.600 165.580,215.164 164.846,214.631 164.271 C 214.098 163.696,213.560 162.905,213.436 162.513 C 213.222 161.837,211.855 161.806,187.216 161.911 L 161.222 162.022 160.365 161.165 C 159.313 160.113,159.495 157.602,160.721 156.261 C 161.154 155.787,161.640 154.950,161.801 154.400 C 161.963 153.850,162.360 153.097,162.684 152.728 C 163.344 151.976,164.424 150.106,165.417 148.000 C 165.780 147.230,166.399 146.240,166.792 145.800 C 167.186 145.360,167.640 144.550,167.801 144.000 C 167.963 143.450,168.360 142.697,168.684 142.328 C 169.332 141.589,170.321 139.887,171.575 137.353 C 172.024 136.447,172.663 135.480,172.995 135.204 C 173.328 134.928,173.600 134.398,173.600 134.026 C 173.600 133.655,173.950 132.975,174.378 132.516 C 174.805 132.057,175.437 131.078,175.783 130.341 C 176.128 129.603,177.393 127.380,178.595 125.400 C 179.797 123.420,181.074 121.173,181.434 120.407 C 181.794 119.640,182.434 118.575,182.856 118.038 C 184.289 116.216,184.181 116.207,158.947 116.085 L 135.134 115.970 134.167 114.927 C 133.635 114.353,133.200 113.639,133.200 113.342 C 133.200 113.044,133.014 112.800,132.786 112.800 C 132.558 112.800,132.007 112.035,131.561 111.100 C 130.477 108.825,129.582 107.258,128.499 105.738 C 128.005 105.044,127.597 104.324,127.593 104.138 C 127.589 103.952,127.049 103.008,126.393 102.040 C 125.737 101.072,125.200 99.947,125.200 99.540 C 125.200 99.133,125.023 98.800,124.807 98.800 C 124.590 98.800,123.964 97.913,123.414 96.828 C 122.865 95.744,122.232 94.743,122.008 94.605 C 121.783 94.466,121.600 94.025,121.600 93.625 C 121.600 93.225,121.305 92.653,120.945 92.355 C 120.585 92.056,119.942 91.089,119.516 90.206 C 118.184 87.445,116.827 85.064,116.451 84.827 C 116.252 84.702,115.792 83.970,115.427 83.200 C 115.063 82.430,114.240 80.900,113.598 79.800 C 112.957 78.700,112.057 77.035,111.597 76.100 C 111.138 75.165,110.613 74.400,110.430 74.400 C 110.247 74.400,109.873 73.860,109.600 73.200 C 109.305 72.488,108.807 72.000,108.375 72.000 C 107.975 72.000,107.536 71.820,107.400 71.600 C 106.848 70.707,105.200 71.157,105.200 72.200 " stroke="none" fill="#0484fc" fill-rule="evenodd"></path><path id="path3" d="M124.080 40.080 C 123.375 40.785,123.493 41.200,124.400 41.200 C 124.933 41.200,125.200 40.933,125.200 40.400 C 125.200 39.493,124.785 39.375,124.080 40.080 M205.600 55.729 C 205.600 56.051,205.870 56.418,206.200 56.545 C 206.530 56.671,206.800 56.678,206.800 56.559 C 206.800 56.440,206.530 56.073,206.200 55.743 C 205.680 55.222,205.600 55.221,205.600 55.729 M210.800 66.400 C 210.800 66.933,211.067 67.200,211.600 67.200 C 212.507 67.200,212.625 66.785,211.920 66.080 C 211.215 65.375,210.800 65.493,210.800 66.400 M108.400 67.557 C 108.400 67.827,108.192 67.919,107.938 67.762 C 107.665 67.593,107.584 67.651,107.741 67.904 C 107.886 68.139,107.779 68.423,107.502 68.534 C 107.189 68.660,107.170 68.749,107.451 68.768 C 108.034 68.809,108.993 67.660,108.657 67.324 C 108.516 67.182,108.400 67.287,108.400 67.557 M279.200 95.429 C 279.200 95.855,280.437 96.897,280.668 96.665 C 281.071 96.263,280.450 95.200,279.813 95.200 C 279.476 95.200,279.200 95.303,279.200 95.429 M287.900 109.933 C 288.698 110.769,289.009 110.721,288.662 109.817 C 288.532 109.478,288.149 109.200,287.813 109.200 C 287.294 109.200,287.308 109.313,287.900 109.933 M299.271 127.852 C 299.342 128.211,299.809 128.775,300.308 129.106 C 301.153 129.666,301.198 129.656,300.946 128.954 C 300.375 127.360,298.993 126.451,299.271 127.852 M307.551 142.040 C 308.514 142.938,309.051 142.830,308.662 141.817 C 308.532 141.478,308.026 141.200,307.537 141.200 L 306.649 141.200 307.551 142.040 M315.705 155.876 C 316.077 156.248,316.493 156.440,316.631 156.303 C 317.024 155.909,316.420 155.200,315.691 155.200 C 315.080 155.200,315.081 155.253,315.705 155.876 M316.880 160.980 C 316.880 162.525,317.211 162.751,318.028 161.766 C 318.400 161.318,318.435 160.945,318.148 160.490 C 317.406 159.313,316.880 159.516,316.880 160.980 M316.172 165.155 C 316.444 165.595,315.425 166.492,315.063 166.130 C 314.918 165.985,314.800 166.077,314.800 166.333 C 314.800 166.941,315.707 166.933,316.320 166.320 C 316.914 165.726,316.948 164.800,316.376 164.800 C 316.143 164.800,316.051 164.960,316.172 165.155 M307.500 179.633 C 307.115 180.055,306.800 180.496,306.800 180.614 C 306.800 181.048,308.314 180.002,308.540 179.411 C 308.856 178.588,308.357 178.695,307.500 179.633 M193.011 223.011 L 191.200 224.821 191.200 228.811 C 191.200 232.799,191.200 232.800,192.200 232.800 C 193.000 232.800,193.200 233.000,193.200 233.800 C 193.200 234.600,193.400 234.800,194.200 234.800 C 195.000 234.800,195.200 235.000,195.200 235.800 C 195.200 236.796,195.213 236.800,199.000 236.800 C 202.787 236.800,202.800 236.796,202.800 235.800 C 202.800 235.000,203.000 234.800,203.800 234.800 L 204.800 234.800 204.800 229.000 L 204.800 223.200 203.800 223.200 C 203.000 223.200,202.800 223.000,202.800 222.200 C 202.800 221.200,202.799 221.200,198.811 221.200 L 194.821 221.200 193.011 223.011 M173.200 258.000 L 173.200 290.800 180.000 290.800 L 186.800 290.800 186.800 258.000 L 186.800 225.200 180.000 225.200 L 173.200 225.200 173.200 258.000 M213.200 233.200 L 213.200 239.200 210.200 239.200 L 207.200 239.200 207.200 244.000 L 207.200 248.800 209.200 248.800 L 211.200 248.800 211.200 267.019 L 211.200 285.238 212.200 286.165 C 212.750 286.675,213.200 287.476,213.200 287.946 C 213.200 288.590,213.446 288.800,214.200 288.800 C 215.000 288.800,215.200 289.000,215.200 289.800 C 215.200 290.723,215.343 290.800,217.054 290.800 C 218.518 290.800,219.103 291.010,219.835 291.800 C 221.437 293.528,226.800 293.044,226.800 291.171 C 226.800 290.967,227.700 290.800,228.800 290.800 L 230.800 290.800 230.800 286.000 L 230.800 281.200 227.800 281.200 C 224.867 281.200,224.800 281.178,224.800 280.200 C 224.800 279.400,224.600 279.200,223.800 279.200 L 222.800 279.200 222.800 264.000 L 222.800 248.800 226.800 248.800 L 230.800 248.800 230.800 244.000 L 230.800 239.200 226.800 239.200 L 222.800 239.200 222.800 233.200 L 222.800 227.200 218.000 227.200 L 213.200 227.200 213.200 233.200 M145.200 260.000 L 145.200 290.800 158.000 290.800 L 170.800 290.800 170.800 286.000 L 170.800 281.200 164.800 281.200 L 158.800 281.200 158.800 272.000 L 158.800 262.800 163.800 262.800 L 168.800 262.800 168.800 258.000 L 168.800 253.200 163.800 253.200 L 158.800 253.200 158.800 246.000 L 158.800 238.800 164.800 238.800 L 170.800 238.800 170.800 234.000 L 170.800 229.200 158.000 229.200 L 145.200 229.200 145.200 260.000 M191.997 240.003 C 191.208 240.792,191.196 241.238,191.297 265.703 L 191.400 290.600 198.100 290.710 L 204.800 290.819 204.800 265.010 L 204.800 239.200 198.800 239.200 C 193.326 239.200,192.730 239.270,191.997 240.003 M241.200 240.178 C 241.200 241.061,241.015 241.168,239.304 241.278 C 237.778 241.376,237.377 241.556,237.255 242.199 C 237.172 242.638,236.675 243.395,236.152 243.880 C 235.605 244.386,235.200 245.219,235.200 245.835 C 235.200 246.466,234.788 247.290,234.200 247.835 L 233.200 248.762 233.200 265.781 L 233.200 282.800 234.200 282.800 C 235.133 282.800,235.200 282.933,235.200 284.800 C 235.200 286.667,235.267 286.800,236.200 286.800 C 237.000 286.800,237.200 287.000,237.200 287.800 C 237.200 288.600,237.400 288.800,238.200 288.800 C 239.000 288.800,239.200 289.000,239.200 289.800 C 239.200 290.778,239.267 290.800,242.200 290.800 C 245.133 290.800,245.200 290.822,245.200 291.800 C 245.200 293.279,248.781 293.293,250.147 291.819 C 250.929 290.975,251.472 290.821,254.028 290.719 C 256.763 290.609,257.010 290.528,257.128 289.700 C 257.220 289.049,257.524 288.800,258.228 288.800 C 258.998 288.800,259.200 288.592,259.200 287.800 C 259.200 287.086,259.416 286.800,259.957 286.800 C 261.084 286.800,261.200 286.105,261.200 279.367 L 261.200 273.200 256.200 273.200 L 251.200 273.200 251.200 276.200 C 251.200 279.133,251.178 279.200,250.200 279.200 C 249.400 279.200,249.200 279.400,249.200 280.200 C 249.200 281.044,249.013 281.200,248.000 281.200 C 246.987 281.200,246.800 281.044,246.800 280.200 C 246.800 279.400,246.600 279.200,245.800 279.200 L 244.800 279.200 244.800 274.000 L 244.800 268.800 253.000 268.800 L 261.200 268.800 261.200 265.800 C 261.200 263.104,261.278 262.800,261.971 262.800 C 263.608 262.800,263.715 252.117,262.090 250.978 C 261.403 250.497,261.215 249.897,261.119 247.891 C 261.014 245.700,260.898 245.385,260.149 245.279 C 259.519 245.189,259.238 244.789,259.068 243.743 C 258.756 241.819,258.145 241.200,256.559 241.200 C 255.459 241.200,255.170 241.018,254.964 240.200 L 254.713 239.200 247.957 239.200 L 241.200 239.200 241.200 240.178 M248.469 249.462 C 248.903 249.855,249.200 250.674,249.200 251.480 C 249.200 252.393,249.527 253.163,250.200 253.836 C 251.022 254.659,251.200 255.224,251.200 257.018 L 251.200 259.200 248.000 259.200 L 244.800 259.200 244.800 256.028 C 244.800 253.043,244.853 252.848,245.700 252.728 C 246.468 252.619,246.618 252.321,246.722 250.700 C 246.851 248.683,247.275 248.382,248.469 249.462 M135.200 297.200 C 135.200 305.067,134.968 304.800,141.800 304.800 L 146.800 304.800 146.800 303.828 C 146.800 303.124,147.049 302.820,147.700 302.728 C 148.567 302.605,148.604 302.430,148.713 297.900 L 148.825 293.200 147.813 293.200 C 146.999 293.200,146.800 293.003,146.800 292.200 L 146.800 291.200 141.000 291.200 L 135.200 291.200 135.200 297.200 M299.200 297.018 C 299.200 304.832,299.172 304.800,305.982 304.800 L 310.800 304.800 310.800 303.828 C 310.800 303.124,311.049 302.820,311.700 302.728 C 312.567 302.605,312.604 302.430,312.713 297.900 L 312.825 293.200 311.813 293.200 C 310.999 293.200,310.800 293.003,310.800 292.200 L 310.800 291.200 305.000 291.200 L 299.200 291.200 299.200 297.018 M117.200 301.200 L 117.200 309.200 116.028 309.200 C 115.117 309.200,114.827 309.000,114.728 308.300 C 114.607 307.447,114.421 307.400,111.200 307.400 C 108.058 307.400,107.770 307.468,107.405 308.300 C 107.075 309.052,106.697 309.200,105.105 309.200 C 103.354 309.200,103.200 309.279,103.200 310.172 C 103.200 310.876,102.951 311.180,102.300 311.272 C 101.474 311.389,101.390 311.639,101.282 314.300 C 101.170 317.081,101.125 317.200,100.182 317.200 L 99.200 317.200 99.200 334.018 L 99.200 350.836 100.200 351.836 C 100.998 352.634,101.200 353.238,101.200 354.818 C 101.200 356.665,101.268 356.800,102.200 356.800 C 103.000 356.800,103.200 357.000,103.200 357.800 C 103.200 358.592,103.402 358.800,104.172 358.800 C 104.876 358.800,105.180 359.049,105.272 359.700 C 105.397 360.579,105.532 360.603,111.100 360.711 L 116.800 360.822 116.800 359.811 C 116.800 359.009,116.999 358.800,117.767 358.800 C 118.298 358.800,118.824 358.575,118.935 358.300 C 119.046 358.025,119.151 358.475,119.168 359.300 L 119.200 360.800 124.000 360.800 L 128.800 360.800 128.800 327.000 L 128.800 293.200 123.000 293.200 L 117.200 293.200 117.200 301.200 M19.200 329.011 L 19.200 360.822 24.900 360.711 L 30.600 360.600 30.807 344.600 C 30.921 335.800,31.056 330.374,31.107 332.542 C 31.193 336.202,31.271 336.541,32.186 337.261 C 33.103 337.982,33.180 338.323,33.286 342.118 C 33.392 345.914,33.463 346.228,34.300 346.595 C 35.114 346.952,35.200 347.266,35.200 349.895 L 35.200 352.800 40.000 352.800 L 44.800 352.800 44.800 350.818 C 44.800 349.238,45.002 348.634,45.800 347.836 C 46.734 346.902,46.800 346.571,46.800 342.818 C 46.800 338.814,46.803 338.800,47.786 338.800 C 48.761 338.800,48.773 338.756,48.902 334.700 C 48.973 332.445,49.069 337.179,49.116 345.220 C 49.178 355.960,49.327 359.967,49.680 360.320 C 50.350 360.990,61.650 360.990,62.320 360.320 C 62.685 359.955,62.800 352.347,62.800 328.520 L 62.800 297.200 55.000 297.200 C 47.302 297.200,47.200 297.211,47.200 298.054 C 47.200 298.524,46.750 299.325,46.200 299.835 C 45.298 300.671,45.200 301.067,45.200 303.886 C 45.200 306.742,45.123 307.044,44.300 307.405 C 43.474 307.767,43.391 308.102,43.285 311.474 C 43.178 314.921,43.116 315.156,42.285 315.274 C 41.439 315.394,41.390 315.622,41.181 320.400 C 41.061 323.150,40.926 324.905,40.881 324.300 C 40.816 323.415,40.605 323.200,39.800 323.200 L 38.800 323.200 38.800 318.981 C 38.800 314.994,38.745 314.711,37.800 313.835 C 36.901 313.001,36.800 312.599,36.800 309.835 C 36.800 307.071,36.699 306.669,35.800 305.835 C 34.886 304.988,34.800 304.619,34.800 301.534 C 34.800 296.994,35.194 297.200,26.520 297.200 L 19.200 297.200 19.200 329.011 M201.200 329.000 L 201.200 360.800 210.000 360.800 L 218.800 360.800 218.800 359.815 C 218.800 358.848,218.866 358.828,222.500 358.715 C 225.898 358.609,226.232 358.527,226.595 357.700 C 226.837 357.148,227.340 356.800,227.895 356.800 C 228.594 356.800,228.800 356.572,228.800 355.800 C 228.800 355.000,229.000 354.800,229.800 354.800 C 230.733 354.800,230.800 354.667,230.800 352.800 C 230.800 350.933,230.867 350.800,231.800 350.800 L 232.800 350.800 232.800 328.781 L 232.800 306.762 231.800 305.835 C 231.250 305.325,230.800 304.524,230.800 304.054 C 230.800 303.410,230.554 303.200,229.800 303.200 C 229.000 303.200,228.800 303.000,228.800 302.200 C 228.800 301.400,228.600 301.200,227.800 301.200 C 227.000 301.200,226.800 301.000,226.800 300.200 C 226.800 299.446,226.590 299.200,225.946 299.200 C 225.476 299.200,224.675 298.750,224.165 298.200 L 223.238 297.200 212.219 297.200 L 201.200 297.200 201.200 329.000 M217.200 307.800 C 217.200 308.600,217.400 308.800,218.200 308.800 C 219.133 308.800,219.200 308.933,219.200 310.800 C 219.200 312.667,219.267 312.800,220.200 312.800 L 221.200 312.800 221.200 328.371 L 221.200 343.942 220.200 344.729 C 219.395 345.362,219.200 345.870,219.200 347.339 L 219.200 349.163 216.510 349.282 C 214.100 349.388,213.768 349.504,213.316 350.400 C 212.904 351.216,212.811 347.306,212.806 329.100 L 212.800 306.800 215.000 306.800 C 217.080 306.800,217.200 306.855,217.200 307.800 M77.693 307.667 C 77.422 307.938,77.200 308.394,77.200 308.680 C 77.200 309.037,76.574 309.200,75.200 309.200 C 73.333 309.200,73.200 309.267,73.200 310.200 C 73.200 311.000,73.000 311.200,72.200 311.200 C 71.400 311.200,71.200 311.400,71.200 312.200 C 71.200 313.000,71.000 313.200,70.200 313.200 C 69.269 313.200,69.200 313.335,69.200 315.172 C 69.200 316.913,69.094 317.159,68.300 317.272 L 67.400 317.400 67.296 334.100 L 67.191 350.800 68.196 350.800 C 69.123 350.800,69.200 350.942,69.200 352.642 C 69.200 354.131,69.392 354.636,70.200 355.271 C 70.750 355.704,71.200 356.459,71.200 356.949 C 71.200 358.239,71.951 358.800,73.680 358.800 C 75.039 358.800,75.200 358.907,75.200 359.810 L 75.200 360.819 81.900 360.710 C 88.458 360.602,88.603 360.581,88.725 359.721 C 88.831 358.979,89.144 358.823,90.725 358.721 C 92.321 358.618,92.619 358.466,92.728 357.700 C 92.798 357.205,93.010 356.800,93.199 356.800 C 94.191 356.800,94.800 355.427,94.800 353.190 C 94.800 351.213,94.960 350.676,95.800 349.836 C 97.280 348.356,97.284 343.647,95.805 342.169 C 94.844 341.207,94.656 341.178,90.105 341.287 L 85.400 341.400 85.286 345.300 L 85.171 349.200 82.986 349.200 C 81.030 349.200,80.800 349.111,80.800 348.358 C 80.800 347.894,80.350 347.161,79.800 346.729 C 78.838 345.971,78.800 345.770,78.800 341.371 L 78.800 336.800 86.800 336.800 C 94.702 336.800,94.800 336.790,94.800 335.946 C 94.800 335.476,95.254 334.671,95.809 334.157 L 96.817 333.222 96.709 325.511 C 96.602 317.947,96.583 317.792,95.700 317.405 C 94.948 317.075,94.800 316.697,94.800 315.105 C 94.800 313.340,94.727 313.200,93.800 313.200 C 93.000 313.200,92.800 313.000,92.800 312.200 C 92.800 311.400,92.600 311.200,91.800 311.200 C 91.000 311.200,90.800 311.000,90.800 310.200 C 90.800 309.269,90.665 309.200,88.828 309.200 C 87.087 309.200,86.841 309.094,86.728 308.300 C 86.575 307.226,78.687 306.673,77.693 307.667 M161.200 308.170 C 161.200 309.128,161.091 309.169,158.300 309.282 C 155.639 309.390,155.389 309.474,155.272 310.300 C 155.180 310.951,154.876 311.200,154.172 311.200 C 153.272 311.200,153.200 311.349,153.200 313.200 C 153.200 315.067,153.133 315.200,152.200 315.200 L 151.200 315.200 151.200 321.000 L 151.200 326.800 157.000 326.800 L 162.800 326.800 162.800 322.800 L 162.800 318.800 165.000 318.800 L 167.200 318.800 167.200 322.972 C 167.200 326.994,167.168 327.149,166.300 327.272 C 165.722 327.354,165.354 327.722,165.272 328.300 C 165.159 329.094,164.913 329.200,163.172 329.200 C 161.347 329.200,161.200 329.273,161.200 330.178 C 161.200 331.061,161.015 331.168,159.300 331.278 C 157.679 331.382,157.381 331.532,157.272 332.300 C 157.180 332.951,156.876 333.200,156.172 333.200 C 155.402 333.200,155.200 333.408,155.200 334.200 C 155.200 335.000,155.000 335.200,154.200 335.200 C 153.446 335.200,153.200 335.410,153.200 336.054 C 153.200 336.524,152.747 337.329,152.192 337.842 L 151.185 338.776 151.292 347.688 C 151.400 356.589,151.401 356.600,152.300 356.728 C 152.951 356.820,153.200 357.124,153.200 357.828 C 153.200 358.554,153.416 358.800,154.054 358.800 C 154.524 358.800,155.325 359.250,155.835 359.800 C 156.729 360.764,156.941 360.800,161.781 360.800 L 166.800 360.800 166.800 359.800 C 166.800 358.956,166.987 358.800,168.000 358.800 C 169.013 358.800,169.200 358.956,169.200 359.800 L 169.200 360.800 174.000 360.800 L 178.800 360.800 178.800 337.158 L 178.800 313.515 177.800 312.729 C 177.250 312.296,176.800 311.685,176.800 311.371 C 176.800 310.081,175.269 309.200,173.028 309.200 C 171.080 309.200,170.842 309.107,170.728 308.300 C 170.605 307.433,170.430 307.396,165.900 307.287 L 161.200 307.175 161.200 308.170 M247.479 307.454 C 247.326 307.608,247.200 308.063,247.200 308.467 C 247.200 309.080,246.873 309.200,245.200 309.200 C 243.333 309.200,243.200 309.267,243.200 310.200 C 243.200 311.000,243.000 311.200,242.200 311.200 C 241.400 311.200,241.200 311.400,241.200 312.200 C 241.200 313.000,241.000 313.200,240.200 313.200 C 239.267 313.200,239.200 313.333,239.200 315.200 C 239.200 317.069,239.134 317.200,238.196 317.200 L 237.192 317.200 237.296 334.900 L 237.400 352.600 238.279 352.725 C 239.021 352.831,239.177 353.144,239.279 354.725 C 239.382 356.321,239.534 356.619,240.300 356.728 C 240.951 356.820,241.200 357.124,241.200 357.828 C 241.200 358.728,241.349 358.800,243.200 358.800 C 245.072 358.800,245.200 358.865,245.200 359.810 L 245.200 360.820 251.700 360.710 C 258.007 360.603,258.212 360.573,258.595 359.700 C 258.861 359.093,259.334 358.800,260.048 358.800 C 260.783 358.800,261.173 358.546,261.324 357.970 C 261.443 357.514,261.914 357.043,262.370 356.924 C 262.908 356.783,263.200 356.381,263.200 355.781 C 263.200 355.126,263.463 354.818,264.100 354.728 C 265.063 354.591,265.622 347.218,264.997 342.900 L 264.751 341.200 259.975 341.200 L 255.200 341.200 255.200 344.200 C 255.200 347.133,255.178 347.200,254.200 347.200 C 253.400 347.200,253.200 347.400,253.200 348.200 C 253.200 349.604,250.926 349.696,250.728 348.300 C 250.646 347.722,250.278 347.354,249.700 347.272 C 248.820 347.147,248.800 347.031,248.800 341.972 L 248.800 336.800 257.000 336.800 L 265.200 336.800 265.200 333.847 C 265.200 331.277,265.299 330.867,265.963 330.694 C 267.558 330.277,267.561 321.561,265.967 319.967 C 265.408 319.408,265.199 318.631,265.195 317.100 C 265.187 314.267,264.855 313.200,263.981 313.200 C 263.533 313.200,263.207 312.856,263.128 312.300 C 263.047 311.730,262.679 311.354,262.125 311.275 C 261.579 311.198,261.202 310.821,261.125 310.275 C 261.017 309.522,260.710 309.383,258.925 309.280 C 257.137 309.176,256.833 309.039,256.725 308.280 C 256.598 307.389,248.287 306.646,247.479 307.454 M277.479 307.454 C 277.326 307.608,277.200 308.063,277.200 308.467 C 277.200 309.080,276.873 309.200,275.200 309.200 C 273.333 309.200,273.200 309.267,273.200 310.200 C 273.200 311.000,273.000 311.200,272.200 311.200 C 271.400 311.200,271.200 311.400,271.200 312.200 C 271.200 313.000,271.000 313.200,270.200 313.200 C 269.225 313.200,269.200 313.273,269.200 316.105 C 269.200 318.734,269.114 319.048,268.300 319.405 C 267.654 319.688,267.400 320.139,267.400 321.000 C 267.400 321.861,267.654 322.312,268.300 322.595 C 269.123 322.956,269.200 323.258,269.200 326.114 C 269.200 328.933,269.298 329.329,270.200 330.165 C 270.750 330.675,271.200 331.476,271.200 331.946 C 271.200 332.590,271.446 332.800,272.200 332.800 C 273.005 332.800,273.200 332.999,273.200 333.818 C 273.200 334.378,273.650 335.286,274.200 335.836 C 274.750 336.386,275.200 337.278,275.200 337.818 C 275.200 338.599,275.405 338.800,276.200 338.800 C 277.000 338.800,277.200 339.000,277.200 339.800 C 277.200 340.600,277.400 340.800,278.200 340.800 C 278.750 340.800,279.200 340.935,279.201 341.100 C 279.201 341.265,276.951 341.345,274.201 341.277 L 269.200 341.154 269.200 343.082 C 269.200 344.698,269.054 345.074,268.300 345.405 C 266.821 346.054,266.717 350.800,268.181 350.800 C 269.182 350.800,269.200 350.852,269.200 353.800 C 269.200 356.733,269.222 356.800,270.200 356.800 C 271.000 356.800,271.200 357.000,271.200 357.800 C 271.200 358.733,271.333 358.800,273.200 358.800 C 275.072 358.800,275.200 358.865,275.200 359.810 L 275.200 360.819 281.900 360.710 C 288.506 360.602,288.602 360.587,288.728 359.700 C 288.825 359.014,289.119 358.800,289.962 358.800 C 291.242 358.800,293.200 356.867,293.200 355.603 C 293.200 355.013,293.465 354.800,294.200 354.800 L 295.200 354.800 295.200 348.450 C 295.200 341.140,294.984 339.573,293.939 339.300 C 293.498 339.185,293.200 338.746,293.200 338.212 C 293.200 337.720,292.752 336.833,292.203 336.241 C 291.655 335.650,291.096 334.724,290.960 334.183 C 290.811 333.589,290.425 333.200,289.984 333.200 C 289.533 333.200,289.207 332.857,289.128 332.300 C 289.047 331.730,288.679 331.354,288.125 331.275 C 287.579 331.198,287.202 330.821,287.125 330.275 C 287.046 329.721,286.670 329.353,286.100 329.272 C 285.449 329.180,285.200 328.876,285.200 328.172 C 285.200 327.414,284.990 327.200,284.245 327.200 C 283.417 327.200,283.254 326.956,283.014 325.354 C 282.812 324.010,282.529 323.454,281.969 323.308 C 281.546 323.197,281.200 322.778,281.200 322.377 C 281.200 321.976,281.050 321.555,280.867 321.441 C 279.961 320.882,280.890 318.800,282.045 318.800 C 283.164 318.800,283.200 318.862,283.200 320.800 C 283.200 322.667,283.267 322.800,284.200 322.800 C 285.134 322.800,285.200 322.933,285.200 324.812 L 285.200 326.825 290.100 326.712 L 295.000 326.600 295.119 321.200 C 295.263 314.645,295.058 313.200,293.982 313.200 C 293.415 313.200,293.200 312.926,293.200 312.200 C 293.200 311.408,292.998 311.200,292.228 311.200 C 291.524 311.200,291.220 310.951,291.128 310.300 C 291.017 309.518,290.729 309.384,288.925 309.280 C 287.137 309.176,286.833 309.039,286.725 308.280 C 286.598 307.389,278.287 306.646,277.479 307.454 M325.200 308.200 C 325.200 309.133,325.067 309.200,323.200 309.200 C 321.333 309.200,321.200 309.267,321.200 310.200 C 321.200 311.000,321.000 311.200,320.200 311.200 C 319.400 311.200,319.200 311.400,319.200 312.200 C 319.200 313.000,319.000 313.200,318.200 313.200 C 317.200 313.200,317.200 313.202,317.200 317.172 C 317.200 320.987,317.164 321.149,316.300 321.272 L 315.400 321.400 315.400 332.800 L 315.400 344.200 316.300 344.595 C 317.145 344.966,317.200 345.229,317.200 348.895 C 317.200 352.794,317.202 352.800,318.200 352.800 C 319.000 352.800,319.200 353.000,319.200 353.800 C 319.200 354.600,319.400 354.800,320.200 354.800 C 321.000 354.800,321.200 355.000,321.200 355.800 C 321.200 356.672,321.375 356.800,322.571 356.800 C 323.557 356.800,324.163 357.081,324.729 357.800 C 325.934 359.333,330.780 359.295,332.219 357.742 L 333.200 356.683 333.200 360.942 L 333.200 365.200 331.000 365.200 L 328.800 365.200 328.800 363.182 C 328.800 359.815,327.849 359.200,322.647 359.200 C 317.195 359.200,317.200 359.195,317.200 364.471 C 317.200 368.276,317.252 368.526,318.200 369.271 C 318.919 369.837,319.200 370.443,319.200 371.429 C 319.200 372.625,319.328 372.800,320.200 372.800 C 321.000 372.800,321.200 373.000,321.200 373.800 L 321.200 374.800 330.000 374.800 L 338.800 374.800 338.800 373.800 C 338.800 372.928,338.975 372.800,340.171 372.800 C 341.914 372.800,342.800 371.914,342.800 370.171 C 342.800 368.975,342.928 368.800,343.800 368.800 C 344.778 368.800,344.800 368.733,344.800 365.800 C 344.800 364.150,344.967 362.800,345.171 362.800 C 346.799 362.800,346.800 362.781,346.800 335.371 L 346.800 309.200 338.800 309.200 L 330.800 309.200 330.800 308.200 C 330.800 307.229,330.720 307.200,328.000 307.200 C 325.280 307.200,325.200 307.229,325.200 308.200 M367.467 307.467 C 367.320 307.613,367.200 308.063,367.200 308.467 C 367.200 309.079,366.874 309.200,365.227 309.200 C 363.381 309.200,363.242 309.271,363.087 310.300 L 362.920 311.400 362.860 310.300 L 362.800 309.200 356.997 309.200 L 351.194 309.200 351.297 334.900 L 351.400 360.600 358.000 360.600 L 364.600 360.600 364.704 339.700 L 364.807 318.800 367.004 318.800 L 369.200 318.800 369.200 339.800 L 369.200 360.800 375.000 360.800 L 380.800 360.800 380.800 336.000 L 380.800 311.200 379.800 311.200 C 379.000 311.200,378.800 311.000,378.800 310.200 C 378.800 309.267,378.667 309.200,376.800 309.200 C 374.933 309.200,374.800 309.133,374.800 308.200 C 374.800 307.211,368.366 306.567,367.467 307.467 M135.200 335.000 L 135.200 360.800 141.000 360.800 L 146.800 360.800 146.800 335.000 L 146.800 309.200 141.000 309.200 L 135.200 309.200 135.200 335.000 M299.200 335.000 L 299.200 360.800 305.000 360.800 L 310.800 360.800 310.800 335.000 L 310.800 309.200 305.000 309.200 L 299.200 309.200 299.200 335.000 M83.200 319.800 C 83.200 320.600,83.400 320.800,84.200 320.800 L 85.200 320.800 85.200 325.000 L 85.200 329.200 82.000 329.200 L 78.800 329.200 78.800 326.146 C 78.800 323.402,78.902 322.998,79.800 322.165 C 80.445 321.567,80.800 320.806,80.800 320.019 C 80.800 318.931,80.929 318.800,82.000 318.800 C 83.013 318.800,83.200 318.956,83.200 319.800 M115.272 319.700 C 115.354 320.278,115.722 320.646,116.300 320.728 L 117.200 320.856 117.200 335.028 L 117.200 349.200 115.000 349.200 L 112.800 349.200 112.800 347.200 C 112.800 345.333,112.733 345.200,111.800 345.200 L 110.800 345.200 110.800 334.000 L 110.800 322.800 111.800 322.800 C 112.733 322.800,112.800 322.667,112.800 320.800 C 112.800 318.533,114.969 317.568,115.272 319.700 M253.200 320.642 C 253.200 322.131,253.392 322.636,254.200 323.271 C 255.081 323.965,255.200 324.363,255.200 326.629 L 255.200 329.200 252.000 329.200 L 248.800 329.200 248.800 325.000 L 248.800 320.800 249.800 320.800 C 250.600 320.800,250.800 320.600,250.800 319.800 C 250.800 318.956,250.987 318.800,252.000 318.800 C 253.160 318.800,253.200 318.862,253.200 320.642 M333.200 333.000 L 333.200 347.200 331.000 347.200 L 328.800 347.200 328.800 333.000 L 328.800 318.800 331.000 318.800 L 333.200 318.800 333.200 333.000 M167.200 344.000 L 167.200 349.200 165.000 349.200 L 162.800 349.200 162.800 346.000 C 162.800 342.853,162.817 342.800,163.800 342.800 C 164.656 342.800,164.800 342.618,164.800 341.531 C 164.800 340.197,165.752 338.800,166.662 338.800 C 167.085 338.800,167.200 339.911,167.200 344.000 M281.200 343.800 C 281.200 344.600,281.400 344.800,282.200 344.800 C 283.145 344.800,283.200 344.920,283.200 347.000 L 283.200 349.200 281.200 349.200 L 279.200 349.200 279.200 346.000 C 279.200 342.853,279.217 342.800,280.200 342.800 C 281.000 342.800,281.200 343.000,281.200 343.800 " stroke="none" fill="#040404" fill-rule="evenodd"></path><path id="path4" d="M309.714 175.842 C 309.227 176.369,308.989 176.800,309.186 176.800 C 309.656 176.800,310.800 175.645,310.800 175.171 C 310.800 174.688,310.758 174.713,309.714 175.842 " stroke="none" fill="#303054" fill-rule="evenodd"></path></g></svg>